<?xml version="1.0" encoding="UTF-8" standalone="no"?>
<svg width="94px" height="59px" viewBox="0 0 94 59" version="1.1" xmlns="http://www.w3.org/2000/svg" xmlns:xlink="http://www.w3.org/1999/xlink" xmlns:sketch="http://www.bohemiancoding.com/sketch/ns">
    <!-- Generator: Sketch 3.3.1 (12005) - http://www.bohemiancoding.com/sketch -->
    <title>L Copy 2 + Rectangle 1 Copy</title>
    <desc>Created with Sketch.</desc>
    <defs></defs>
    <g id="Page-1" stroke="none" stroke-width="1" fill="none" fill-rule="evenodd" sketch:type="MSPage">
        <g id="L-Copy-2-+-Rectangle-1-Copy" sketch:type="MSLayerGroup" transform="translate(1.000000, 1.000000)">
            <path d="M44,57.28 L44,6.16 L34.064,6.16 L34.064,48.568 L8,48.568 L8,57.28 L44,57.28 L44,57.28 Z M82.956,57 L73.308,57 L73.308,35.832 C73.308,32.8559851 72.7560055,30.6600071 71.652,29.244 C70.5479945,27.8279929 68.9880101,27.12 66.972,27.12 C66.1079957,27.12 65.1960048,27.3119981 64.236,27.696 C63.2759952,28.0800019 62.3640043,28.6199965 61.5,29.316 C60.6359957,30.0120035 59.8440036,30.8399952 59.124,31.8 C58.4039964,32.7600048 57.8760017,33.8159942 57.54,34.968 L57.54,57 L47.892,57 L47.892,4.44 L57.54,4.44 L57.54,26.256 C58.932007,23.8079878 60.8159881,21.9240066 63.192,20.604 C65.5680119,19.2839934 68.1959856,18.624 71.076,18.624 C73.5240122,18.624 75.5159923,19.0439958 77.052,19.884 C78.5880077,20.7240042 79.7879957,21.839993 80.652,23.232 C81.5160043,24.624007 82.1159983,26.2079911 82.452,27.984 C82.7880017,29.7600089 82.956,31.5839906 82.956,33.456 L82.956,57 L82.956,57 Z" id="L-Copy-2" fill="#000000" sketch:type="MSShapeGroup"></path>
            <path d="M43.9482422,57 L9.99478519,57 C4.47481775,57 0,52.9117414 0,47.8860396 L0,0.469725847 L82.0012136,0.469725847 C87.5233909,0.469725847 92,4.55798448 92,9.58368621 L92,57 L83.1650391,57 C80.0139974,57 76.8629557,57 73.3999939,57 M57.3999939,57 L47.8999939,57" id="Rectangle-1-Copy" stroke="#000000" stroke-width="2" fill-opacity="0.0266077899" fill="#D8D8D8" sketch:type="MSShapeGroup"></path>
        </g>
    </g>
</svg>